<svg width="17" height="16" viewBox="0 0 17 16" fill="none" xmlns="http://www.w3.org/2000/svg">
<path d="M1 12.875H3.36364V6.05H1V12.875ZM15 6.61875C15 5.99313 14.4682 5.48125 13.8182 5.48125H10.0895L10.6509 2.88206L10.6686 2.70006C10.6686 2.46688 10.5682 2.25075 10.4086 2.09719L9.78227 1.5L5.89409 5.24806C5.67545 5.45281 5.54545 5.73719 5.54545 6.05V11.7375C5.54545 12.3631 6.07727 12.875 6.72727 12.875H12.0455C12.5359 12.875 12.9555 12.5906 13.1327 12.1811L14.9173 8.17144C14.9705 8.04063 15 7.90413 15 7.75625V6.66994L14.9941 6.66425L15 6.61875Z" stroke="#828282"/>
</svg>
