<svg width="16" height="17" viewBox="0 0 16 17" fill="none" xmlns="http://www.w3.org/2000/svg">
<path d="M9.27273 4.5H3.95455C3.46409 4.5 3.04455 4.78437 2.86727 5.19387L1.08273 9.20356C1.02955 9.33438 1 9.47088 1 9.61875V10.7051L1.00591 10.7108L1 10.7563C1 11.3819 1.53182 11.8938 2.18182 11.8938H5.91045L5.34909 14.4929L5.33136 14.6749C5.33136 14.9081 5.43182 15.1243 5.59136 15.2778L6.21773 15.875L10.1118 12.1269C10.3245 11.9222 10.4545 11.6378 10.4545 11.325V5.6375C10.4545 5.01188 9.92273 4.5 9.27273 4.5ZM12.6364 4.5V11.325H15V4.5H12.6364Z" stroke="#828282"/>
</svg>
